<mxfile host="Electron" modified="2023-11-17T14:33:18.377Z" agent="Mozilla/5.0 (Macintosh; Intel Mac OS X 10_15_7) AppleWebKit/537.36 (KHTML, like Gecko) draw.io/22.1.2 Chrome/114.0.5735.289 Electron/25.9.4 Safari/537.36" etag="3BdMjzasP0SYTC9KUAGP" version="22.1.2" type="device">
  <diagram name="Pagina-1" id="AzrdyapE-DGkmAzc57vs">
    <mxGraphModel dx="1242" dy="854" grid="1" gridSize="10" guides="1" tooltips="1" connect="1" arrows="1" fold="1" page="1" pageScale="1" pageWidth="827" pageHeight="1169" math="0" shadow="0">
      <root>
        <mxCell id="0" />
        <mxCell id="1" parent="0" />
        <mxCell id="zsFwzHVrS6_ihFAnn8ME-1" value="&lt;b&gt;&lt;font style=&quot;font-size: 23px;&quot;&gt;Water Framework&lt;/font&gt;&lt;/b&gt;" style="rounded=0;whiteSpace=wrap;html=1;fillColor=#dae8fc;strokeColor=#6c8ebf;" vertex="1" parent="1">
          <mxGeometry x="798" y="30" width="240" height="120" as="geometry" />
        </mxCell>
        <mxCell id="zsFwzHVrS6_ihFAnn8ME-2" value="" style="rounded=0;whiteSpace=wrap;html=1;fillColor=none;" vertex="1" parent="1">
          <mxGeometry x="50" y="240" width="300" height="240" as="geometry" />
        </mxCell>
        <mxCell id="zsFwzHVrS6_ihFAnn8ME-3" value="&lt;b&gt;Water Generator&lt;/b&gt;" style="text;html=1;strokeColor=none;fillColor=none;align=center;verticalAlign=middle;whiteSpace=wrap;rounded=0;" vertex="1" parent="1">
          <mxGeometry x="140" y="240" width="110" height="30" as="geometry" />
        </mxCell>
        <mxCell id="zsFwzHVrS6_ihFAnn8ME-4" value="" style="rounded=0;whiteSpace=wrap;html=1;fillColor=none;" vertex="1" parent="1">
          <mxGeometry x="360" y="240" width="300" height="190" as="geometry" />
        </mxCell>
        <mxCell id="zsFwzHVrS6_ihFAnn8ME-5" value="&lt;b&gt;Runtime Implementations&lt;/b&gt;" style="text;html=1;strokeColor=none;fillColor=none;align=center;verticalAlign=middle;whiteSpace=wrap;rounded=0;" vertex="1" parent="1">
          <mxGeometry x="476" y="240" width="56" height="30" as="geometry" />
        </mxCell>
        <mxCell id="zsFwzHVrS6_ihFAnn8ME-6" value="" style="rounded=0;whiteSpace=wrap;html=1;fillColor=none;" vertex="1" parent="1">
          <mxGeometry x="670" y="240" width="300" height="260" as="geometry" />
        </mxCell>
        <mxCell id="zsFwzHVrS6_ihFAnn8ME-7" value="&lt;b&gt;Integrations&lt;/b&gt;" style="text;html=1;strokeColor=none;fillColor=none;align=center;verticalAlign=middle;whiteSpace=wrap;rounded=0;" vertex="1" parent="1">
          <mxGeometry x="784" y="240" width="60" height="30" as="geometry" />
        </mxCell>
        <mxCell id="zsFwzHVrS6_ihFAnn8ME-12" value="Spring 2.x" style="rounded=0;whiteSpace=wrap;html=1;fillColor=#d5e8d4;strokeColor=#82b366;fontStyle=1" vertex="1" parent="1">
          <mxGeometry x="370" y="290" width="90" height="60" as="geometry" />
        </mxCell>
        <mxCell id="zsFwzHVrS6_ihFAnn8ME-13" value="Quarkus" style="rounded=0;whiteSpace=wrap;html=1;fillColor=#d5e8d4;strokeColor=#82b366;fontStyle=1" vertex="1" parent="1">
          <mxGeometry x="465" y="290" width="90" height="60" as="geometry" />
        </mxCell>
        <mxCell id="zsFwzHVrS6_ihFAnn8ME-14" value="OSGi 7+" style="rounded=0;whiteSpace=wrap;html=1;fillColor=#d5e8d4;strokeColor=#82b366;fontStyle=1" vertex="1" parent="1">
          <mxGeometry x="561" y="290" width="90" height="60" as="geometry" />
        </mxCell>
        <mxCell id="zsFwzHVrS6_ihFAnn8ME-16" value="&lt;span style=&quot;font-weight: normal;&quot;&gt;Scaffold Projects&lt;/span&gt;" style="rounded=0;whiteSpace=wrap;html=1;fontStyle=1;fillColor=#ffe6cc;strokeColor=#d79b00;" vertex="1" parent="1">
          <mxGeometry x="70" y="280" width="270" height="40" as="geometry" />
        </mxCell>
        <mxCell id="zsFwzHVrS6_ihFAnn8ME-17" value="&lt;span style=&quot;font-weight: normal;&quot;&gt;Build Modules&lt;/span&gt;" style="rounded=0;whiteSpace=wrap;html=1;fontStyle=1;fillColor=#ffe6cc;strokeColor=#d79b00;" vertex="1" parent="1">
          <mxGeometry x="70" y="330" width="270" height="40" as="geometry" />
        </mxCell>
        <mxCell id="zsFwzHVrS6_ihFAnn8ME-18" value="&lt;span style=&quot;font-weight: normal;&quot;&gt;Find Cycles Deps&lt;/span&gt;" style="rounded=0;whiteSpace=wrap;html=1;fontStyle=1;fillColor=#ffe6cc;strokeColor=#d79b00;" vertex="1" parent="1">
          <mxGeometry x="70" y="380" width="270" height="40" as="geometry" />
        </mxCell>
        <mxCell id="zsFwzHVrS6_ihFAnn8ME-19" value="&lt;span style=&quot;font-weight: normal;&quot;&gt;Stability Metrics&lt;/span&gt;" style="rounded=0;whiteSpace=wrap;html=1;fontStyle=1;fillColor=#ffe6cc;strokeColor=#d79b00;" vertex="1" parent="1">
          <mxGeometry x="70" y="430" width="270" height="40" as="geometry" />
        </mxCell>
        <mxCell id="zsFwzHVrS6_ihFAnn8ME-20" value="Kafka" style="rounded=0;whiteSpace=wrap;html=1;fillColor=#f5f5f5;strokeColor=#666666;fontStyle=1;fontColor=#333333;" vertex="1" parent="1">
          <mxGeometry x="680" y="290" width="90" height="60" as="geometry" />
        </mxCell>
        <mxCell id="zsFwzHVrS6_ihFAnn8ME-21" value="Zookeeper" style="rounded=0;whiteSpace=wrap;html=1;fillColor=#f5f5f5;strokeColor=#666666;fontStyle=1;fontColor=#333333;" vertex="1" parent="1">
          <mxGeometry x="776" y="290" width="90" height="60" as="geometry" />
        </mxCell>
        <mxCell id="zsFwzHVrS6_ihFAnn8ME-22" value="Hadoop" style="rounded=0;whiteSpace=wrap;html=1;fillColor=#f5f5f5;strokeColor=#666666;fontStyle=1;fontColor=#333333;" vertex="1" parent="1">
          <mxGeometry x="873" y="289" width="90" height="60" as="geometry" />
        </mxCell>
        <mxCell id="zsFwzHVrS6_ihFAnn8ME-23" value="HBase" style="rounded=0;whiteSpace=wrap;html=1;fillColor=#f5f5f5;strokeColor=#666666;fontStyle=1;fontColor=#333333;" vertex="1" parent="1">
          <mxGeometry x="680" y="360" width="90" height="60" as="geometry" />
        </mxCell>
        <mxCell id="zsFwzHVrS6_ihFAnn8ME-24" value="Spark" style="rounded=0;whiteSpace=wrap;html=1;fillColor=#f5f5f5;strokeColor=#666666;fontStyle=1;fontColor=#333333;" vertex="1" parent="1">
          <mxGeometry x="776" y="360" width="90" height="60" as="geometry" />
        </mxCell>
        <mxCell id="zsFwzHVrS6_ihFAnn8ME-25" value="Storm" style="rounded=0;whiteSpace=wrap;html=1;fillColor=#f5f5f5;strokeColor=#666666;fontStyle=1;fontColor=#333333;" vertex="1" parent="1">
          <mxGeometry x="873" y="360" width="90" height="60" as="geometry" />
        </mxCell>
        <mxCell id="zsFwzHVrS6_ihFAnn8ME-26" value="Ethereum" style="rounded=0;whiteSpace=wrap;html=1;fillColor=#f5f5f5;strokeColor=#666666;fontStyle=1;fontColor=#333333;" vertex="1" parent="1">
          <mxGeometry x="680" y="427" width="90" height="60" as="geometry" />
        </mxCell>
        <mxCell id="zsFwzHVrS6_ihFAnn8ME-27" value="" style="rounded=0;whiteSpace=wrap;html=1;fillColor=none;" vertex="1" parent="1">
          <mxGeometry x="982" y="240" width="308" height="260" as="geometry" />
        </mxCell>
        <mxCell id="zsFwzHVrS6_ihFAnn8ME-28" value="&lt;b&gt;Core Charateristics&lt;/b&gt;" style="text;html=1;strokeColor=none;fillColor=none;align=center;verticalAlign=middle;whiteSpace=wrap;rounded=0;" vertex="1" parent="1">
          <mxGeometry x="1082" y="240" width="100" height="30" as="geometry" />
        </mxCell>
        <mxCell id="zsFwzHVrS6_ihFAnn8ME-29" value="Modularization" style="rounded=0;whiteSpace=wrap;html=1;fillColor=#fff2cc;strokeColor=#d6b656;fontStyle=1;" vertex="1" parent="1">
          <mxGeometry x="992" y="289" width="90" height="60" as="geometry" />
        </mxCell>
        <mxCell id="zsFwzHVrS6_ihFAnn8ME-30" value="DDD Driven" style="rounded=0;whiteSpace=wrap;html=1;fillColor=#fff2cc;strokeColor=#d6b656;fontStyle=1;" vertex="1" parent="1">
          <mxGeometry x="1088" y="290" width="90" height="60" as="geometry" />
        </mxCell>
        <mxCell id="zsFwzHVrS6_ihFAnn8ME-31" value="Microservices" style="rounded=0;whiteSpace=wrap;html=1;fillColor=#fff2cc;strokeColor=#d6b656;fontStyle=1;" vertex="1" parent="1">
          <mxGeometry x="1184" y="289" width="90" height="60" as="geometry" />
        </mxCell>
        <mxCell id="zsFwzHVrS6_ihFAnn8ME-32" value="" style="rounded=0;whiteSpace=wrap;html=1;fillColor=none;" vertex="1" parent="1">
          <mxGeometry x="1300" y="240" width="310" height="420" as="geometry" />
        </mxCell>
        <mxCell id="zsFwzHVrS6_ihFAnn8ME-33" value="&lt;b&gt;Out of the box Features&lt;/b&gt;" style="text;html=1;strokeColor=none;fillColor=none;align=center;verticalAlign=middle;whiteSpace=wrap;rounded=0;" vertex="1" parent="1">
          <mxGeometry x="1396" y="242" width="100" height="30" as="geometry" />
        </mxCell>
        <mxCell id="zsFwzHVrS6_ihFAnn8ME-34" value="User Management" style="rounded=0;whiteSpace=wrap;html=1;fillColor=#e1d5e7;strokeColor=#9673a6;fontStyle=1;" vertex="1" parent="1">
          <mxGeometry x="1310" y="289" width="90" height="60" as="geometry" />
        </mxCell>
        <mxCell id="zsFwzHVrS6_ihFAnn8ME-35" value="High Granularity Permission System" style="rounded=0;whiteSpace=wrap;html=1;fillColor=#e1d5e7;strokeColor=#9673a6;fontStyle=1;" vertex="1" parent="1">
          <mxGeometry x="1409" y="289" width="90" height="60" as="geometry" />
        </mxCell>
        <mxCell id="zsFwzHVrS6_ihFAnn8ME-36" value="Role Management" style="rounded=0;whiteSpace=wrap;html=1;fillColor=#e1d5e7;strokeColor=#9673a6;fontStyle=1;" vertex="1" parent="1">
          <mxGeometry x="1508" y="289" width="90" height="60" as="geometry" />
        </mxCell>
        <mxCell id="zsFwzHVrS6_ihFAnn8ME-37" value="Customizable" style="rounded=0;whiteSpace=wrap;html=1;fillColor=#e1d5e7;strokeColor=#9673a6;fontStyle=1;" vertex="1" parent="1">
          <mxGeometry x="1310" y="360" width="90" height="60" as="geometry" />
        </mxCell>
        <mxCell id="zsFwzHVrS6_ihFAnn8ME-38" value="Ready to go" style="rounded=0;whiteSpace=wrap;html=1;fillColor=#e1d5e7;strokeColor=#9673a6;fontStyle=1;" vertex="1" parent="1">
          <mxGeometry x="1409" y="360" width="90" height="60" as="geometry" />
        </mxCell>
        <mxCell id="zsFwzHVrS6_ihFAnn8ME-39" value="Convention Over Coding" style="rounded=0;whiteSpace=wrap;html=1;fillColor=#fff2cc;strokeColor=#d6b656;fontStyle=1;" vertex="1" parent="1">
          <mxGeometry x="992" y="356" width="90" height="60" as="geometry" />
        </mxCell>
        <mxCell id="zsFwzHVrS6_ihFAnn8ME-40" value="Jobs Management" style="rounded=0;whiteSpace=wrap;html=1;fillColor=#e1d5e7;strokeColor=#9673a6;fontStyle=1;" vertex="1" parent="1">
          <mxGeometry x="1508" y="360" width="90" height="60" as="geometry" />
        </mxCell>
        <mxCell id="zsFwzHVrS6_ihFAnn8ME-41" value="Asset Management" style="rounded=0;whiteSpace=wrap;html=1;fillColor=#e1d5e7;strokeColor=#9673a6;fontStyle=1;" vertex="1" parent="1">
          <mxGeometry x="1310" y="430" width="90" height="60" as="geometry" />
        </mxCell>
        <mxCell id="zsFwzHVrS6_ihFAnn8ME-42" value="Mail Senders" style="rounded=0;whiteSpace=wrap;html=1;fillColor=#e1d5e7;strokeColor=#9673a6;fontStyle=1;" vertex="1" parent="1">
          <mxGeometry x="1409" y="430" width="90" height="60" as="geometry" />
        </mxCell>
        <mxCell id="zsFwzHVrS6_ihFAnn8ME-43" value="JWT Auth" style="rounded=0;whiteSpace=wrap;html=1;fillColor=#e1d5e7;strokeColor=#9673a6;fontStyle=1;" vertex="1" parent="1">
          <mxGeometry x="1508" y="430" width="90" height="60" as="geometry" />
        </mxCell>
        <mxCell id="zsFwzHVrS6_ihFAnn8ME-44" value="Asset Management" style="rounded=0;whiteSpace=wrap;html=1;fillColor=#e1d5e7;strokeColor=#9673a6;fontStyle=1;" vertex="1" parent="1">
          <mxGeometry x="1310" y="500" width="90" height="60" as="geometry" />
        </mxCell>
        <mxCell id="zsFwzHVrS6_ihFAnn8ME-45" value="Realtime&amp;nbsp; Messaging&amp;nbsp;" style="rounded=0;whiteSpace=wrap;html=1;fillColor=#e1d5e7;strokeColor=#9673a6;fontStyle=1;" vertex="1" parent="1">
          <mxGeometry x="1409" y="500" width="90" height="60" as="geometry" />
        </mxCell>
        <mxCell id="zsFwzHVrS6_ihFAnn8ME-46" value="Convention Over Coding" style="rounded=0;whiteSpace=wrap;html=1;fillColor=#fff2cc;strokeColor=#d6b656;fontStyle=1;" vertex="1" parent="1">
          <mxGeometry x="1088" y="356" width="90" height="60" as="geometry" />
        </mxCell>
        <mxCell id="zsFwzHVrS6_ihFAnn8ME-47" value="Spring 3.x" style="rounded=0;whiteSpace=wrap;html=1;fillColor=#d5e8d4;strokeColor=#82b366;fontStyle=1" vertex="1" parent="1">
          <mxGeometry x="370" y="360" width="90" height="60" as="geometry" />
        </mxCell>
        <mxCell id="zsFwzHVrS6_ihFAnn8ME-49" value="External JWT Validation" style="rounded=0;whiteSpace=wrap;html=1;fillColor=#e1d5e7;strokeColor=#9673a6;fontStyle=1;" vertex="1" parent="1">
          <mxGeometry x="1508" y="500" width="90" height="60" as="geometry" />
        </mxCell>
        <mxCell id="zsFwzHVrS6_ihFAnn8ME-50" value="Support Microservice Design" style="rounded=0;whiteSpace=wrap;html=1;fillColor=#e1d5e7;strokeColor=#9673a6;fontStyle=1;" vertex="1" parent="1">
          <mxGeometry x="1310" y="570" width="90" height="60" as="geometry" />
        </mxCell>
      </root>
    </mxGraphModel>
  </diagram>
</mxfile>
